# xmcd
#
# Track frame offsets:
#	150
#	29237
#	47272
#	64535
#	88920
#	106387
#	125139
#	143144
#	175289
#	192409
#	216642
#
# Disc length: 3105 seconds
#
# Revision: 0
# Processed by: cddbd v1.5.1PL2 Copyright (c) Steve Scherf et al.
# Submitted via: audiograbber 1.83.01
#
DISCID=ac0c1f0b
DTITLE=Larry Dunn - Got It Workin'
DYEAR=1900
DGENRE=
TTITLE0=You Call This Love
TTITLE1=Got It Workin'
TTITLE2=Jumpin' At The Golden Gate
TTITLE3=Crazy For You
TTITLE4=Carolina Moon
TTITLE5=Waiting For The Rain
TTITLE6=One Brick At A Time
TTITLE7=Yo' Mambo
TTITLE8=Down In Mexico
TTITLE9=Take Back Your Life
TTITLE10=Ship Shape
EXTD=
EXTT0=
EXTT1=
EXTT2=
EXTT3=
EXTT4=
EXTT5=
EXTT6=
EXTT7=
EXTT8=
EXTT9=
EXTT10=
PLAYORDER=
